# xmcd CD database file
#
# Track frame offsets:
#	150
#	18232
#	33403
#	47410
#	64382
#	82846
#	97173
#	113581
#	133745
#	150314
#	166198
#	179880
#	196416
#	210271
#	221830
#	234870
#	245617
#	260142
#	269443
#	280159
#	293754
#	301507
#	313076
#
# Disc length: 4410 seconds
#
# Revision: 0
# Processed by: cddbd v1.5.2PL0 Copyright (c) Steve Scherf et al.
# Submitted via: CdAid (MTCDDB.DLL V2003.12.21)
#
DISCID=44113817
DTITLE=Various Artist - Show Brasil
DYEAR=1994
DGENRE=Country
TTITLE0=Terezinha - Almir Guineto
TTITLE1=Nego Véio - Boca Nervosa
TTITLE2=Moda de Viola - Grupo Raça
TTITLE3=Coração Feito Menino - Royce do Cavaco
TTITLE4=Nego Dito - Branca de Neve
TTITLE5=Saudosa Maloca - Originais do Samba
TTITLE6=Quero Te Ver - Sol Nascente
TTITLE7=Boca Loca - Branca de Neve
TTITLE8=Andação - Beth Carvalho
TTITLE9=Minta Meu Sonho - Jorge Aragão
TTITLE10=Senhora Rezadeira - Beth Carvalho
TTITLE11=Flor de Liz - Djavan
TTITLE12=Balança Pema - Marisa Monte
TTITLE13=No Claro e No Escuro  - Reginaldo Rossi
TTITLE14=Eu Sou Fã do Monoquini - Roberto Carlos
TTITLE15=O Feio - Roberto Carlos
TTITLE16=Perdi a Esperança - Renato e Seus Blue Caps
TTITLE17=Dona do Meu Coração - Renato e Seus Blue Caps
TTITLE18=Lacinhos Cor de Rosa - Celly Campelo
TTITLE19=Banho de Lua - Celly Campelo
TTITLE20=Hert - Jerry Ross
TTITLE21=Justo Nesta Noite - Adriana
TTITLE22=Conselho - Almir Guineto
EXTD=ID3G:   2 YEAR: 1994
EXTT0=
EXTT1=
EXTT2=
EXTT3=
EXTT4=
EXTT5=
EXTT6=
EXTT7=
EXTT8=
EXTT9=
EXTT10=
EXTT11=
EXTT12=
EXTT13=
EXTT14=
EXTT15=
EXTT16=
EXTT17=
EXTT18=
EXTT19=
EXTT20=
EXTT21=
EXTT22=
PLAYORDER=
